<svg width="18" height="19" viewBox="0 0 18 19" fill="none" xmlns="http://www.w3.org/2000/svg">
<path d="M12.3421 9.85595C13.2288 9.16075 13.876 8.20743 14.1937 7.12861C14.5114 6.04979 14.4837 4.89912 14.1146 3.83669C13.7455 2.77426 13.0532 1.8529 12.1341 1.20079C11.215 0.548675 10.1148 0.198242 8.98659 0.198242C7.85834 0.198242 6.75814 0.548675 5.83906 1.20079C4.91997 1.8529 4.22771 2.77426 3.85858 3.83669C3.48945 4.89912 3.4618 6.04979 3.77948 7.12861C4.09717 8.20743 4.74439 9.16075 5.6311 9.85595C4.1117 10.4625 2.78598 11.4687 1.79525 12.767C0.80453 14.0654 0.185949 15.6073 0.00545546 17.2284C-0.0076096 17.3468 0.00284753 17.4666 0.0362296 17.5809C0.0696116 17.6952 0.125265 17.8019 0.200012 17.8948C0.35097 18.0824 0.570537 18.2026 0.810411 18.2289C1.05028 18.2552 1.29082 18.1854 1.47909 18.035C1.66736 17.8846 1.78796 17.6658 1.81434 17.4267C2.01295 15.6649 2.85598 14.0377 4.18238 12.8561C5.50877 11.6745 7.22554 11.0213 9.00467 11.0213C10.7838 11.0213 12.5006 11.6745 13.827 12.8561C15.1534 14.0377 15.9964 15.6649 16.195 17.4267C16.2196 17.6482 16.3256 17.8527 16.4927 18.0009C16.6597 18.149 16.8759 18.2302 17.0994 18.2289H17.1989C17.436 18.2017 17.6527 18.0822 17.8018 17.8965C17.9509 17.7108 18.0203 17.4739 17.9948 17.2375C17.8135 15.6117 17.1916 14.0658 16.1958 12.7655C15.2 11.4651 13.8678 10.4593 12.3421 9.85595ZM8.98659 9.21603C8.27106 9.21603 7.5716 9.0046 6.97666 8.60846C6.38172 8.21232 5.91802 7.64928 5.6442 6.99053C5.37037 6.33177 5.29873 5.6069 5.43832 4.90757C5.57792 4.20824 5.92248 3.56587 6.42843 3.06168C6.93439 2.5575 7.57901 2.21414 8.28079 2.07504C8.98257 1.93593 9.70999 2.00732 10.371 2.28019C11.0321 2.55305 11.5971 3.01513 11.9947 3.60799C12.3922 4.20085 12.6044 4.89787 12.6044 5.6109C12.6044 6.56704 12.2232 7.48402 11.5447 8.16012C10.8663 8.83621 9.94608 9.21603 8.98659 9.21603Z" fill="black"/>
</svg>
