<svg width="15" height="17" viewBox="0 0 15 17" fill="none" xmlns="http://www.w3.org/2000/svg">
<path d="M4.04124 0.200734C3.92823 0.213509 3.82402 0.269193 3.74908 0.356814C3.67412 0.444558 3.63395 0.55785 3.63641 0.6744V1.60713H1.36357C0.616074 1.60713 0 2.23915 0 3.00607V15.5975C0 16.3645 0.616044 16.9965 1.36357 16.9965H10.9092C11.0294 16.9956 11.1443 16.9458 11.2287 16.8581L14.865 13.1274C14.9505 13.0408 14.9991 12.9229 15 12.7996V3.0064C15 2.23951 14.384 1.60746 13.6363 1.60746H11.3636V0.674729C11.3664 0.540463 11.3126 0.411381 11.216 0.320736C11.1195 0.229981 10.9895 0.186349 10.8594 0.201055C10.7464 0.21383 10.6422 0.269514 10.5672 0.357135C10.4923 0.444879 10.4521 0.55817 10.4546 0.67472V1.60745H4.54524V0.67472C4.54806 0.540454 4.49437 0.411371 4.3978 0.320727C4.30112 0.229971 4.17119 0.18634 4.04103 0.201045L4.04124 0.200734ZM3.63641 2.53978V3.47251C3.63465 3.59726 3.68176 3.71766 3.76717 3.80648C3.85269 3.89543 3.96923 3.94545 4.09095 3.94545C4.21266 3.94545 4.32919 3.89543 4.41473 3.80648C4.50013 3.71765 4.54724 3.59725 4.54548 3.47251V2.53978H10.4548V3.47251C10.453 3.59726 10.5001 3.71766 10.5856 3.80648C10.6711 3.89543 10.7876 3.94545 10.9093 3.94545C11.031 3.94545 11.1476 3.89543 11.233 3.80648C11.3185 3.71765 11.3656 3.59725 11.3639 3.47251V2.53978H13.6366C13.8963 2.53978 14.0912 2.73973 14.0912 3.00608V4.87145H0.909016V3.00608C0.909016 2.73972 1.10391 2.53978 1.36353 2.53978H3.63641ZM0.909055 5.80419H14.0913V12.333H10.9094C10.8952 12.3324 10.881 12.3324 10.8667 12.333C10.7537 12.344 10.6488 12.3978 10.5726 12.4843C10.4963 12.5705 10.4543 12.6829 10.4549 12.7994V16.0638H1.36368C1.10405 16.0638 0.909167 15.8639 0.909167 15.5974L0.909055 5.80419ZM11.3638 13.2657H13.452L11.3638 15.408V13.2657Z" fill="black"/>
</svg>
