<svg width="18" height="19" viewBox="0 0 18 19" fill="none" xmlns="http://www.w3.org/2000/svg">
<path d="M13.0901 10.1181C13.7649 10.1181 14.3587 9.74834 14.6646 9.18922L17.8854 3.33652C18.2182 2.74133 17.7864 2.00185 17.1026 2.00185H3.78759L2.94191 0.198242H0V2.00185H1.79933L5.03813 8.84654L3.82358 11.0469C3.16682 12.2554 4.0305 13.7253 5.398 13.7253H16.194V11.9217H5.398L6.38763 10.1181H13.0901ZM4.64228 3.80546H15.5732L13.0901 8.31448H6.77448L4.64228 3.80546ZM5.398 14.6271C4.40836 14.6271 3.60766 15.4387 3.60766 16.4307C3.60766 17.4227 4.40836 18.2343 5.398 18.2343C6.38763 18.2343 7.19733 17.4227 7.19733 16.4307C7.19733 15.4387 6.38763 14.6271 5.398 14.6271ZM14.3947 14.6271C13.405 14.6271 12.6043 15.4387 12.6043 16.4307C12.6043 17.4227 13.405 18.2343 14.3947 18.2343C15.3843 18.2343 16.194 17.4227 16.194 16.4307C16.194 15.4387 15.3843 14.6271 14.3947 14.6271Z" fill="black"/>
</svg>
