<svg width="86" height="60" viewBox="0 0 86 60" fill="none" xmlns="http://www.w3.org/2000/svg">
<path d="M84.1556 58.9998V55.7108H79.8656V58.9998H78.1056V51.1458H79.8656V54.1818H84.1556V51.1458H85.9156V58.9998H84.1556Z" fill="black"/>
<path d="M70.0635 58.9998V52.6088H66.9835V51.1458H74.9035V52.6088H71.8235V58.9998H70.0635Z" fill="black"/>
<path d="M64.5372 55.0728C64.5372 55.9014 64.3539 56.6274 63.9872 57.2508C63.6279 57.8668 63.1036 58.3471 62.4142 58.6918C61.7322 59.0291 60.9182 59.1978 59.9722 59.1978C59.0629 59.1978 58.2672 59.0364 57.5852 58.7138C56.9106 58.3838 56.3826 57.9108 56.0012 57.2948C55.6272 56.6714 55.4402 55.9308 55.4402 55.0728C55.4402 54.2441 55.6199 53.5218 55.9792 52.9058C56.3459 52.2824 56.8702 51.8021 57.5522 51.4648C58.2416 51.1201 59.0592 50.9478 60.0052 50.9478C60.9146 50.9478 61.7066 51.1128 62.3812 51.4428C63.0632 51.7654 63.5912 52.2384 63.9652 52.8618C64.3466 53.4778 64.5372 54.2148 64.5372 55.0728ZM62.7112 55.0728C62.7112 54.2221 62.4729 53.5621 61.9962 53.0928C61.5196 52.6234 60.8486 52.3888 59.9832 52.3888C59.1252 52.3888 58.4579 52.6271 57.9812 53.1038C57.5046 53.5731 57.2662 54.2294 57.2662 55.0728C57.2662 55.9234 57.5046 56.5834 57.9812 57.0528C58.4579 57.5221 59.1289 57.7568 59.9942 57.7568C60.8522 57.7568 61.5196 57.5221 61.9962 57.0528C62.4729 56.5761 62.7112 55.9161 62.7112 55.0728Z" fill="black"/>
<path d="M50.2698 58.9998V53.6428L47.7618 58.9998H46.4088L43.9008 53.6868V58.9998H42.2838V51.1458H44.3298L47.1238 57.1078L49.9068 51.1458H51.9088V58.9998H50.2698Z" fill="black"/>
<path d="M31.9116 58.9998V51.1458H38.4896V52.5868H33.6716V54.2368H38.2586V55.6778H33.6716V57.5588H38.7316L38.5116 58.9998H31.9116Z" fill="black"/>
<path d="M26.2097 51.1458H27.9697V55.6998C27.9697 56.8731 27.6507 57.7494 27.0127 58.3288C26.382 58.9081 25.4177 59.1978 24.1197 59.1978C22.8217 59.1978 21.8537 58.9081 21.2157 58.3288C20.585 57.7494 20.2697 56.8731 20.2697 55.6998V51.1458H22.0297V55.7988C22.0297 56.4734 22.1984 56.9684 22.5357 57.2838C22.873 57.5991 23.401 57.7568 24.1197 57.7568C24.8384 57.7568 25.3664 57.5991 25.7037 57.2838C26.041 56.9684 26.2097 56.4734 26.2097 55.7988V51.1458Z" fill="black"/>
<path d="M10.9523 58.9998V51.1458H12.7123V57.5368H17.5083L17.2883 58.9998H10.9523Z" fill="black"/>
<path d="M0 58.9998V51.1458H3.817C5.96567 51.1458 7.04 51.8204 7.04 53.1698C7.04 53.9838 6.61467 54.5411 5.764 54.8418C6.81267 55.1864 7.337 55.8098 7.337 56.7118C7.337 57.4598 7.051 58.0281 6.479 58.4168C5.91433 58.8054 5.08567 58.9998 3.993 58.9998H0ZM3.828 54.2808C4.34867 54.2808 4.73 54.2038 4.972 54.0498C5.214 53.8958 5.335 53.6574 5.335 53.3348C5.335 53.0268 5.21033 52.8068 4.961 52.6748C4.71167 52.5354 4.30467 52.4658 3.74 52.4658H1.661V54.2808H3.828ZM3.872 57.6798C4.48067 57.6798 4.92433 57.5991 5.203 57.4378C5.48167 57.2691 5.621 57.0014 5.621 56.6348C5.621 56.2681 5.48167 55.9968 5.203 55.8208C4.92433 55.6448 4.48433 55.5568 3.883 55.5568H1.661V57.6798H3.872Z" fill="black"/>
<path d="M63.6008 27.814C63.6008 24.765 61.9552 23.2715 58.8408 23.2715H53.7272V37.0043C53.7272 39.9293 55.7202 41.0634 58.725 41.0634C61.7297 41.0634 63.6008 39.9293 63.6008 37.0043V27.8078V27.814ZM63.5399 8.46038C63.5399 5.53534 61.7236 4.3393 58.7189 4.3393C55.7202 4.3393 53.7272 5.52915 53.7272 8.46038V19.5098H58.8408C62.071 19.5098 63.5399 18.196 63.5399 14.9673V8.45418V8.46038ZM71 36.2916C71 43.1022 65.7158 45.2464 58.725 45.2464C51.5635 45.2464 46.0964 43.1022 46.0964 36.3536V9.0615C46.0964 2.31284 51.5574 0.162447 58.725 0.168644C65.7158 0.168644 70.7075 2.31285 70.7075 9.12347V14.5583C70.7075 18.7972 68.7083 20.9476 63.7776 21.307C68.5986 21.7284 71 23.6371 71 27.2252V36.304V36.2916Z" fill="black"/>
<path d="M23.4053 37.0105C23.4053 39.9355 25.2825 41.0696 28.2811 41.0696C31.2798 41.0696 33.2789 39.9355 33.2728 37.0105V23.2777H28.1592C25.0448 23.2777 23.3992 24.765 23.3992 27.8202V37.0167L23.4053 37.0105ZM23.4601 14.9735C23.4601 18.196 24.9229 19.516 28.1592 19.516H33.2728V8.46038C33.2728 5.53534 31.2737 4.3393 28.2811 4.3393C25.2825 4.3393 23.4601 5.52915 23.4601 8.46038V14.9735ZM16 27.2128C16 23.6247 18.4075 21.716 23.2224 21.2946C18.2917 20.9352 16.2926 18.791 16.2926 14.5459V9.11108C16.2926 2.30045 21.2842 0.15625 28.275 0.15625C35.4365 0.15625 40.9036 2.30045 40.9036 9.0491V36.3412C40.9036 43.0898 35.4426 45.2402 28.275 45.234C21.1075 45.234 16 43.0898 16 36.2792V27.2004V27.2128Z" fill="black"/>
</svg>
